<svg width="60" height="60" viewBox="0 0 60 60" fill="none" xmlns="http://www.w3.org/2000/svg">
<mask id="mask0_182_3129" style="mask-type:alpha" maskUnits="userSpaceOnUse" x="0" y="0" width="60" height="60">
<rect width="60" height="60" fill="#D9D9D9"/>
</mask>
<g mask="url(#mask0_182_3129)">
<path d="M29.9997 32.2109L16.894 45.3172C16.5928 45.6184 16.2282 45.773 15.8003 45.7809C15.3724 45.7888 14.9997 45.6343 14.6822 45.3172C14.3651 44.9997 14.2065 44.6309 14.2065 44.2109C14.2065 43.7913 14.3651 43.4228 14.6822 43.1053L27.7884 29.9997L14.6822 16.894C14.3809 16.5928 14.2263 16.2282 14.2184 15.8003C14.2105 15.3724 14.3651 14.9997 14.6822 14.6822C14.9997 14.3651 15.3684 14.2065 15.7884 14.2065C16.208 14.2065 16.5765 14.3651 16.894 14.6822L29.9997 27.7884L43.1053 14.6822C43.4065 14.3809 43.7711 14.2263 44.199 14.2184C44.627 14.2105 44.9997 14.3651 45.3172 14.6822C45.6343 14.9997 45.7928 15.3684 45.7928 15.7884C45.7928 16.208 45.6343 16.5765 45.3172 16.894L32.2109 29.9997L45.3172 43.1053C45.6184 43.4065 45.773 43.7711 45.7809 44.199C45.7888 44.627 45.6343 44.9997 45.3172 45.3172C44.9997 45.6343 44.6309 45.7928 44.2109 45.7928C43.7913 45.7928 43.4228 45.6343 43.1053 45.3172L29.9997 32.2109Z" fill="#545454"/>
</g>
</svg>
