<svg width="32" height="32" viewBox="0 0 32 32" fill="none" xmlns="http://www.w3.org/2000/svg">
<mask id="mask0_202_225" style="mask-type:alpha" maskUnits="userSpaceOnUse" x="0" y="0" width="32" height="32">
<rect width="32" height="32" fill="#D9D9D9"/>
</mask>
<g mask="url(#mask0_202_225)">
<path d="M12 24.0003C11.2667 24.0003 10.6389 23.7392 10.1167 23.217C9.59444 22.6948 9.33333 22.067 9.33333 21.3337V5.33366C9.33333 4.60033 9.59444 3.97255 10.1167 3.45033C10.6389 2.9281 11.2667 2.66699 12 2.66699H24C24.7333 2.66699 25.3611 2.9281 25.8833 3.45033C26.4056 3.97255 26.6667 4.60033 26.6667 5.33366V21.3337C26.6667 22.067 26.4056 22.6948 25.8833 23.217C25.3611 23.7392 24.7333 24.0003 24 24.0003H12ZM6.66667 29.3337C5.93333 29.3337 5.30556 29.0725 4.78333 28.5503C4.26111 28.0281 4 27.4003 4 26.667V9.33366C4 8.95588 4.12778 8.63921 4.38333 8.38366C4.63889 8.1281 4.95556 8.00033 5.33333 8.00033C5.71111 8.00033 6.02778 8.1281 6.28333 8.38366C6.53889 8.63921 6.66667 8.95588 6.66667 9.33366V26.667H20C20.3778 26.667 20.6944 26.7948 20.95 27.0503C21.2056 27.3059 21.3333 27.6225 21.3333 28.0003C21.3333 28.3781 21.2056 28.6948 20.95 28.9503C20.6944 29.2059 20.3778 29.3337 20 29.3337H6.66667Z" fill="#B1C8E0"/>
</g>
</svg>
